# xmcd
#
# Track frame offsets:
#	150
#	13963
#	32819
#	46389
#	63634
#	79216
#	94455
#	108579
#	125783
#	147734
#	164027
#	185328
#	200602
#	216799
#	239179
#	253113
#	274257
#	290742
#	308481
#
# Disc length: 4383 seconds
#
# Revision: 1
# Processed by: cddbd v1.5.2PL0 Copyright (c) Steve Scherf et al.
# Submitted via: audiograbber 1.83.01
#
DISCID=3f111d13
DTITLE=Tim McGraw - 35 Biggest Hits CD1
DYEAR=2015
DGENRE=Country
TTITLE0=Indian Outlaw
TTITLE1=Don't Take The Girl
TTITLE2=Down On The Farm
TTITLE3=Not A Moment Too Soon
TTITLE4=I Like It, I Love It
TTITLE5=Can't Be Really Gone
TTITLE6=She Never Lets It Go To Her Heart
TTITLE7=It's Your Love
TTITLE8=Everywhere
TTITLE9=Just To See You Smile
TTITLE10=One Of These Days
TTITLE11=Where The Green Grass Grows
TTITLE12=For A Little While
TTITLE13=Please Remember Me
TTITLE14=Something Like That
TTITLE15=My Best Friend
TTITLE16=My Next Thirty Years
TTITLE17=Grown Men Don't Cry
TTITLE18=Angry All The Time
EXTD=
EXTT0=
EXTT1=
EXTT2=
EXTT3=
EXTT4=
EXTT5=
EXTT6=
EXTT7=
EXTT8=
EXTT9=
EXTT10=
EXTT11=
EXTT12=
EXTT13=
EXTT14=
EXTT15=
EXTT16=
EXTT17=
EXTT18=
PLAYORDER=
